<svg width="512px" height="422px" viewBox="0 0 512 422" version="1.1" xmlns="http://www.w3.org/2000/svg" xmlns:xlink="http://www.w3.org/1999/xlink">
    <!-- Generator: Sketch 48.2 (47327) - http://www.bohemiancoding.com/sketch -->
    <desc>Created with Sketch.</desc>
    <defs></defs>
    <g id="Page-1" stroke="none" stroke-width="1" fill="none" fill-rule="evenodd">
        <g id="benefit" fill="#38BCDB" fill-rule="nonzero">
            <path d="M462,82 L334.8,82 L334.8,20 C334.8,9 325.8,0 314.8,0 L197.2,0 C186.2,0 177.2,9 177.2,20 L177.2,82 L50,82 C22.4,82 0,104.4 0,132 L0,372 C0,399.6 22.4,422 50,422 L462,422 C489.6,422 512,399.6 512,372 L512,132 C512,104.4 489.6,82 462,82 Z M217.2,40 L294.7,40 L294.7,82 L217.2,82 L217.2,40 Z M50,122 C52.2,122 456.4,122 462,122 C467.5,122 472,126.5 472,132 L472,232 L314.8,232 C303.8,232 294.8,241 294.8,252 L294.8,273 L217.3,273 L217.3,252 C217.3,241 208.3,232 197.3,232 L40,232 L40,132 C40,126.5 44.5,122 50,122 Z M462,382 L50,382 C44.5,382 40,377.5 40,372 L40,272 L177.2,272 L177.2,293 C177.2,304 186.2,313 197.2,313 L314.7,313 C325.7,313 334.7,304 334.7,293 L334.7,272 L472,272 L472,372 C472,377.5 467.5,382 462,382 Z" id="Shape"></path>
        </g>
    </g>
</svg>