<svg width="264px" height="198px" viewBox="0 0 264 198" version="1.1" xmlns="http://www.w3.org/2000/svg" xmlns:xlink="http://www.w3.org/1999/xlink">
    <!-- Generator: Sketch 48.2 (47327) - http://www.bohemiancoding.com/sketch -->
    <desc>Created with Sketch.</desc>
    <defs></defs>
    <g id="Page-1" stroke="none" stroke-width="1" fill="none" fill-rule="evenodd">
        <g id="complete_proj" fill="#38BCDB" fill-rule="nonzero">
            <path d="M247,0 L17.9,0 C8.2,0 0,7.9 0,17.6 L0,180.7 C0,190.4 8.1,198 17.9,198 L247,198 C256.7,198 264,190.4 264,180.7 L264,17.6 C264,7.7 256.7,0 247,0 Z M60.2,10 C63.8,10 66.6,12.9 66.6,16.4 C66.6,19.9 63.7,22.8 60.2,22.8 C56.7,22.8 53.8,19.9 53.8,16.4 C53.8,12.9 56.7,10 60.2,10 Z M41.7,10 C45.3,10 48.1,12.9 48.1,16.4 C48.1,19.9 45.2,22.8 41.7,22.8 C38.2,22.8 35.3,19.9 35.3,16.4 C35.3,12.9 38.2,10 41.7,10 Z M23.2,10 C26.8,10 29.6,12.9 29.6,16.4 C29.6,19.9 26.7,22.8 23.2,22.8 C19.7,22.8 16.8,19.9 16.8,16.4 C16.8,12.9 19.7,10 23.2,10 Z M248,181.5 C248,181.8 248.1,182 247.8,182 L247.3,182 L16.8,182 L16,182 L16,181.5 L16,34 L16,33.5 C16,33.2 16.6,33 16.8,33 L247.8,33 C248.1,33 248,33.2 248,33.5 L248,181.5 Z M241.9,23 L171.9,23 C168.3,23 165.5,20.1 165.5,16.5 C165.5,12.9 168.4,10 171.9,10 L241.9,10 C245.5,10 248.3,12.9 248.3,16.5 C248.3,20.1 245.4,23 241.9,23 Z" id="Shape"></path>
            <g id="Group" transform="translate(33.000000, 60.000000)">
                <path d="M6.9,13 L76.9,13 C80.5,13 83.3,10.1 83.3,6.5 C83.3,2.9 80.4,0 76.9,0 L6.9,0 C3.3,0 0.5,2.9 0.5,6.5 C0.4,10.1 3.3,13 6.9,13 Z" id="Shape"></path>
                <path d="M76.9,22 L6.9,22 C3.3,22 0.5,24.9 0.5,28.5 C0.5,32.1 3.4,35 6.9,35 L76.9,35 C80.5,35 83.3,32.1 83.3,28.5 C83.3,24.9 80.4,22 76.9,22 Z" id="Shape"></path>
                <path d="M76.9,44 L6.9,44 C3.3,44 0.5,46.9 0.5,50.5 C0.5,54.1 3.4,57 6.9,57 L76.9,57 C80.5,57 83.3,54.1 83.3,50.5 C83.3,46.9 80.4,44 76.9,44 Z" id="Shape"></path>
                <path d="M76.9,66 L6.9,66 C3.3,66 0.5,68.9 0.5,72.5 C0.5,76.1 3.4,79 6.9,79 L76.9,79 C80.5,79 83.3,76.1 83.3,72.5 C83.3,68.9 80.4,66 76.9,66 Z" id="Shape"></path>
            </g>
            <path d="M218.8,58 L144.8,58 C137.9,58 132,63.6 132,70.5 L132,71 L132,144.5 L132,145 C132,151.6 137.7,157 144.3,157 L144.8,157 L218.3,157 L218.8,157 C225.7,157 231,151.4 231,144.5 L231,70.5 C231,63.6 225.7,58 218.8,58 Z" id="Shape"></path>
        </g>
    </g>
</svg>