<svg width="280px" height="280px" viewBox="0 0 280 280" version="1.1" xmlns="http://www.w3.org/2000/svg" xmlns:xlink="http://www.w3.org/1999/xlink">
    <!-- Generator: Sketch 48.2 (47327) - http://www.bohemiancoding.com/sketch -->
    <desc>Created with Sketch.</desc>
    <defs></defs>
    <g id="Page-1" stroke="none" stroke-width="1" fill="none" fill-rule="evenodd">
        <g id="data_coding" fill="#38BCDB" fill-rule="nonzero">
            <path d="M230.7,47.7 C206.2,23.2 173.6,9.7 139,9.7 C104.4,9.7 71.8,23.2 47.3,47.7 C-3.3,98.3 -3.3,180.5 47.3,231.1 C71.8,255.6 104.4,269.1 139,269.1 C173.6,269.1 206.2,255.6 230.7,231.1 C255.2,206.6 268.7,174 268.7,139.4 C268.7,104.8 255.2,72.2 230.7,47.7 Z M57.7,58.2 C79.4,36.5 108.3,24.5 139,24.5 C169.7,24.5 198.6,36.5 220.3,58.2 C237.4,75.3 248.5,96.9 252.4,120.4 L212.1,159.8 C208.3,157.6 203.9,156.4 199.2,156.4 C190.1,156.4 182,161.1 177.3,168.1 L118.1,149.5 C118.1,149.3 118.1,149.2 118.1,149 C118.1,134.5 106.3,122.7 91.8,122.7 C77.3,122.7 65.5,134.5 65.5,149 C65.5,153.7 66.8,158.2 69,162 L38,194.2 C14.3,150.6 20.9,95 57.7,58.2 Z M210.7,182.6 C210.7,189 205.5,194.2 199.2,194.2 C192.8,194.2 187.6,189 187.6,182.6 C187.6,176.2 192.8,171 199.2,171 C205.5,171.1 210.7,176.3 210.7,182.6 Z M103.4,149 C103.4,155.4 98.2,160.6 91.8,160.6 C85.4,160.6 80.2,155.4 80.2,149 C80.2,142.6 85.4,137.4 91.8,137.4 C98.2,137.4 103.4,142.6 103.4,149 Z M220.2,220.7 C198.5,242.4 169.6,254.4 138.9,254.4 C108.2,254.4 79.3,242.4 57.6,220.7 C53.3,216.4 49.4,211.8 45.9,207 L79.5,172.2 C83.2,174.1 87.3,175.2 91.7,175.2 C100.8,175.2 108.9,170.5 113.6,163.5 L172.8,182.1 C172.8,182.3 172.8,182.4 172.8,182.6 C172.8,197.1 184.6,208.9 199.1,208.9 C213.6,208.9 225.4,197.1 225.4,182.6 C225.4,178.1 224.3,173.9 222.3,170.2 L253.80062,139.4 C253.9,170.2 241.9,199 220.2,220.7 Z" id="Shape"></path>
            <path d="M140,0 C62.7,0 0,62.7 0,140 C0,217.3 62.7,280 140,280 C217.3,280 280,217.3 280,140 C280,62.7 217.3,0 140,0 Z M140,253.8 C77.3,253.8 26.2,202.8 26.2,140 C26.2,77.3 77.2,26.2 140,26.2 C202.8,26.2 253.8,77.2 253.8,140 C253.7,202.7 202.7,253.8 140,253.8 Z" id="Shape"></path>
        </g>
    </g>
</svg>